<svg width="18" height="113" viewBox="0 0 18 113" fill="none" xmlns="http://www.w3.org/2000/svg">
<g id="simple-icons:springboot" clip-path="url(#clip0_2683_176)">
<path id="Vector" d="M111.407 50.0649L89.2878 11.7891C87.3705 8.46889 82.6614 5.73792 78.8128 5.73792H34.6214C30.7868 5.73792 26.0591 8.46889 24.1465 11.7891L2.04143 50.0649C0.12413 53.3851 0.12413 58.8237 2.04143 62.1485L24.1371 100.443C26.0544 103.763 30.7635 106.494 34.6121 106.494H78.8268C82.6614 106.494 87.3658 103.763 89.3018 100.443L111.402 62.1438C113.319 58.8237 113.319 53.3851 111.402 50.0649H111.407ZM51.9379 26.9124C51.9379 24.4012 53.9861 22.3529 56.4927 22.3529C58.9992 22.3529 61.0521 24.4012 61.0521 26.9124V54.1333C60.9779 55.2908 60.4657 56.3767 59.6197 57.1702C58.7737 57.9637 57.6573 58.4053 56.4973 58.4053C55.3374 58.4053 54.221 57.9637 53.375 57.1702C52.529 56.3767 52.0168 55.2908 51.9426 54.1333L51.9379 26.9124ZM56.4927 85.0392C48.3002 85.028 40.4466 81.768 34.6545 75.9742C28.8624 70.1804 25.6048 62.3258 25.5961 54.1333C25.6072 49.3146 26.7399 44.5647 28.9046 40.2597C31.0693 35.9546 34.2066 32.2126 38.0679 29.33C38.4955 29.0114 38.9818 28.7805 39.499 28.6503C40.0161 28.5202 40.5538 28.4934 41.0813 28.5716C41.6088 28.6499 42.1156 28.8315 42.5727 29.1061C43.0298 29.3806 43.4282 29.7428 43.745 30.1718C44.0633 30.5987 44.2943 31.0842 44.4248 31.6005C44.5553 32.1168 44.5826 32.6537 44.5053 33.1806C44.428 33.7075 44.2475 34.2139 43.9742 34.671C43.7009 35.128 43.3401 35.5267 42.9126 35.8441C38.2279 39.5092 35.1608 44.8598 34.3656 50.7545C33.5704 56.6491 35.11 62.6212 38.6561 67.3966C42.2021 72.1721 47.4738 75.3728 53.3466 76.3161C59.2194 77.2594 65.2283 75.8705 70.0914 72.4458C72.9475 70.3231 75.267 67.5613 76.8643 64.3814C78.4615 61.2015 79.2922 57.6918 79.2898 54.1333C79.2804 50.5615 78.4357 47.0415 76.8231 43.8545C75.2105 40.6675 72.8748 37.9019 70.0026 35.7787C69.1382 35.1379 68.5629 34.1808 68.4025 33.1168C68.2421 32.0529 68.5098 30.9687 69.1468 30.1016C69.7876 29.2373 70.7447 28.6619 71.8087 28.5015C72.8726 28.3412 73.9568 28.6088 74.8239 29.2458C78.7157 32.1253 81.8793 35.8761 84.0612 40.1978C86.2432 44.5195 87.3829 49.292 87.3892 54.1333C87.383 62.3269 84.1253 70.1831 78.3316 75.9769C72.5378 81.7707 64.6816 85.0283 56.488 85.0345" fill="#52DF57"/>
</g>
<defs>
<clipPath id="clip0_2683_176">
<rect width="112.232" height="112.232" fill="white" transform="translate(0.604431)"/>
</clipPath>
</defs>
</svg>
